<?xml version="1.0" encoding="UTF-8" standalone="no"?>
<!-- Created with Inkscape (http://www.inkscape.org/) -->

<svg
   xmlns:dc="http://purl.org/dc/elements/1.1/"
   xmlns:cc="http://creativecommons.org/ns#"
   xmlns:rdf="http://www.w3.org/1999/02/22-rdf-syntax-ns#"
   xmlns:svg="http://www.w3.org/2000/svg"
   xmlns="http://www.w3.org/2000/svg"
   xmlns:sodipodi="http://sodipodi.sourceforge.net/DTD/sodipodi-0.dtd"
   xmlns:inkscape="http://www.inkscape.org/namespaces/inkscape"
   width="1380"
   height="1380"
   id="svg2"
   version="1.1"
   inkscape:version="0.48.4 r9939"
   sodipodi:docname="logo.svg"
   inkscape:export-filename="C:\Users\henwo_000\Documents\logo.png"
   inkscape:export-xdpi="90"
   inkscape:export-ydpi="90">
  <defs
     id="defs4" />
  <sodipodi:namedview
     id="base"
     pagecolor="#ffffff"
     bordercolor="#666666"
     borderopacity="1.0"
     inkscape:pageopacity="0.0"
     inkscape:pageshadow="2"
     inkscape:zoom="0.98994949"
     inkscape:cx="709.4128"
     inkscape:cy="608.54332"
     inkscape:document-units="px"
     inkscape:current-layer="layer1"
     showgrid="true"
     showguides="true"
     inkscape:guide-bbox="true"
     inkscape:snap-global="false"
     fit-margin-top="5"
     fit-margin-left="5"
     fit-margin-right="5"
     fit-margin-bottom="5"
     inkscape:window-width="1920"
     inkscape:window-height="1017"
     inkscape:window-x="-8"
     inkscape:window-y="-8"
     inkscape:window-maximized="1">
    <inkscape:grid
       type="xygrid"
       id="grid3768"
       empspacing="5"
       visible="true"
       enabled="true"
       snapvisiblegridlinesonly="true"
       originx="551.16394px"
       originy="-471.41187px" />
  </sodipodi:namedview>
  <metadata
     id="metadata7">
    <rdf:RDF>
      <cc:Work
         rdf:about="">
        <dc:format>image/svg+xml</dc:format>
        <dc:type
           rdf:resource="http://purl.org/dc/dcmitype/StillImage" />
        <dc:title></dc:title>
      </cc:Work>
    </rdf:RDF>
  </metadata>
  <g
     inkscape:label="Layer 1"
     inkscape:groupmode="layer"
     id="layer1"
     transform="translate(551.16394,799.04964)">
    <g
       id="g3011"
       transform="translate(-0.31245481,-629.32504)">
      <path
         sodipodi:nodetypes="ccccc"
         inkscape:connector-curvature="0"
         id="path2996"
         d="m 475.62725,302.93567 348.34232,-0.0833 c 0.25251,19.17423 -39.19261,49.26087 -63.31137,49.01816 l -275.74093,-1.1267 z"
         style="fill:#000000;fill-opacity:1;stroke:#000000;stroke-width:0.98037916px;stroke-linecap:butt;stroke-linejoin:miter;stroke-opacity:1" />
      <path
         sodipodi:nodetypes="ccccc"
         inkscape:connector-curvature="0"
         id="path2996-1"
         d="m 469.70537,377.93567 275.106,-0.0833 c 0.25251,19.17423 -39.19317,49.26087 -63.31227,49.01816 l -214.62633,-1.12671 z"
         style="fill:#000000;fill-opacity:1;stroke:#000000;stroke-width:0.98038608px;stroke-linecap:butt;stroke-linejoin:miter;stroke-opacity:1" />
      <path
         sodipodi:nodetypes="ccccc"
         inkscape:connector-curvature="0"
         id="path2996-7"
         d="m 468.25374,452.93568 192.27182,-0.0833 c 0.25262,19.17422 -39.19394,49.26085 -63.31357,49.01814 l -147.95485,-1.1267 z"
         style="fill:#000000;fill-opacity:1;stroke:#000000;stroke-width:0.98039687px;stroke-linecap:butt;stroke-linejoin:miter;stroke-opacity:1" />
      <path
         sodipodi:nodetypes="ccccc"
         inkscape:connector-curvature="0"
         id="path2996-4"
         d="m -197.33032,302.93567 -348.34222,-0.0833 c -0.25255,19.17423 39.19256,49.26087 63.31131,49.01816 l 275.74096,-1.1267 z"
         style="fill:#000000;fill-opacity:1;stroke:#000000;stroke-width:0.98037916px;stroke-linecap:butt;stroke-linejoin:miter;stroke-opacity:1" />
      <path
         sodipodi:nodetypes="ccccc"
         inkscape:connector-curvature="0"
         id="path2996-0"
         d="m -201.02943,452.93569 -179.6431,-0.0833 c -0.25256,19.17422 39.19383,49.26085 63.31337,49.01814 l 157.04648,-1.1267 z"
         style="fill:#000000;fill-opacity:1;stroke:#000000;stroke-width:0.98039502px;stroke-linecap:butt;stroke-linejoin:miter;stroke-opacity:1" />
      <path
         sodipodi:nodetypes="ccccc"
         inkscape:connector-curvature="0"
         id="path2996-9"
         d="m -196.71395,377.93567 -267.53002,-0.0833 c -0.25255,19.17423 39.19323,49.26087 63.31238,49.01816 l 191.89684,-1.12671 z"
         style="fill:#000000;fill-opacity:1;stroke:#000000;stroke-width:0.98038739px;stroke-linecap:butt;stroke-linejoin:miter;stroke-opacity:1" />
      <path
         style="fill:#010101"
         inkscape:connector-curvature="0"
         d="m 332.69785,225.95036 c -82.3378,0 -157.84622,77.59854 -195.98561,124.53381 C 98.56547,303.5489 23.06445,225.95036 -59.27335,225.95036 c -96.15211,0 -174.37154,78.50543 -174.37154,175 0,96.49456 78.21943,175 174.37154,175 82.3378,0 157.83882,-77.59854 195.98559,-124.54124 38.13197,46.93526 113.6404,124.54124 195.98561,124.54124 96.14471,0 174.37151,-78.50544 174.37151,-175 0,-96.49457 -78.2268,-175 -174.37151,-175 z m -391.9712,289.23095 c -62.76071,0 -113.82555,-51.25414 -113.82555,-114.23095 0,-62.99167 51.06484,-114.23839 113.82555,-114.23839 58.47939008,0 125.69921,71.5328 158.53509,114.23839 C 66.41846,443.67082 -0.79395992,515.18131 -59.27335,515.18131 z m 391.9712,0 c -58.49421,0 -125.73625,-71.56253 -158.5573,-114.26812 32.76179,-42.71302 99.8631,-114.21608 158.5573,-114.21608 62.76812,0 113.81815,51.2467 113.81815,114.23838 0,62.99911 -51.05003,114.24582 -113.81815,114.24582 z"
         id="path3825" />
    </g>
    <text
       xml:space="preserve"
       style="font-size:98.62974548px;font-style:normal;font-variant:normal;font-weight:bold;font-stretch:normal;line-height:125%;letter-spacing:0px;word-spacing:0px;fill:#000000;fill-opacity:1;stroke:none;font-family:Yu Gothic UI;-inkscape-font-specification:Yu Gothic UI Bold"
       x="136.58997"
       y="66.522057"
       id="text3020"
       sodipodi:linespacing="125%"><tspan
         sodipodi:role="line"
         id="tspan3022"
         x="136.58997"
         y="66.522057"
         style="font-size:100px;font-style:normal;font-variant:normal;font-weight:normal;font-stretch:normal;text-align:center;text-anchor:middle;font-family:Yu Gothic;-inkscape-font-specification:Yu Gothic">MAVIONICS</tspan></text>
  </g>
</svg>
